<svg width="1440" height="1000" viewBox="0 0 1440 1000" fill="none" xmlns="http://www.w3.org/2000/svg">
  <defs>
    <linearGradient id="bg" x1="0" y1="0" x2="1440" y2="1000" gradientUnits="userSpaceOnUse">
      <stop stop-color="#1d1325"/>
      <stop offset=".55" stop-color="#0b1017"/>
      <stop offset="1" stop-color="#466b69"/>
    </linearGradient>
    <filter id="shadow" x="60" y="-20" width="1360" height="1020" filterUnits="userSpaceOnUse">
      <feDropShadow dx="0" dy="18" stdDeviation="28" flood-color="#000" flood-opacity=".18"/>
    </filter>
  </defs>
  <rect width="1440" height="1000" fill="url(#bg)"/>
  <rect x="92" y="32" width="1296" height="914" rx="32" fill="#fff" filter="url(#shadow)"/>
  <rect x="0" y="0" width="92" height="1000" fill="#0b0b12"/>
  <path d="M34 70c36 12 48 28 50 56-31-5-54-23-50-56Z" stroke="#f7f4ff" stroke-width="3" fill="none"/>
  <g fill="#8b8fa0">
    <rect x="39" y="322" width="18" height="18" rx="2"/>
    <rect x="39" y="462" width="18" height="18" rx="2"/>
    <rect x="39" y="602" width="18" height="18" rx="2"/>
    <rect x="39" y="742" width="18" height="18" rx="2"/>
  </g>
  <rect x="24" y="372" width="44" height="44" rx="14" fill="#fbfadf"/>
  <text x="124" y="84" font-family="Arial, sans-serif" font-size="24" font-weight="700" fill="#222">Agenda</text>
  <text x="157" y="143" font-family="Arial, sans-serif" font-size="14" font-weight="700" fill="#222">Semana del 7 al 13 de abril, 2026</text>
  <rect x="974" y="122" width="174" height="34" rx="10" fill="#f8f8f8"/>
  <rect x="1154" y="122" width="152" height="34" rx="10" fill="#f8f8f8"/>
  <rect x="1248" y="122" width="58" height="34" rx="10" fill="#fff"/>
  <rect x="1316" y="122" width="96" height="34" rx="10" fill="#1238ff"/>
  <text x="1344" y="144" font-family="Arial, sans-serif" font-size="12" font-weight="700" fill="#fff">Nueva cita</text>
  <rect x="124" y="202" width="1288" height="558" rx="18" fill="#fff" stroke="#eef0f2"/>
  <g stroke="#edf0f2" stroke-width="1">
    <line x1="124" y1="274" x2="1412" y2="274"/>
    <line x1="124" y1="346" x2="1412" y2="346"/>
    <line x1="124" y1="418" x2="1412" y2="418"/>
    <line x1="124" y1="490" x2="1412" y2="490"/>
    <line x1="124" y1="562" x2="1412" y2="562"/>
    <line x1="124" y1="634" x2="1412" y2="634"/>
    <line x1="168" y1="202" x2="168" y2="760"/>
    <line x1="346" y1="202" x2="346" y2="760"/>
    <line x1="524" y1="202" x2="524" y2="760"/>
    <line x1="702" y1="202" x2="702" y2="760"/>
    <line x1="880" y1="202" x2="880" y2="760"/>
    <line x1="1058" y1="202" x2="1058" y2="760"/>
    <line x1="1236" y1="202" x2="1236" y2="760"/>
  </g>
  <rect x="702" y="202" width="178" height="558" fill="#eef2ff"/>
  <text x="248" y="250" font-family="Arial, sans-serif" font-size="22" font-weight="700" fill="#aaa">7</text>
  <text x="426" y="250" font-family="Arial, sans-serif" font-size="22" font-weight="700" fill="#aaa">8</text>
  <text x="604" y="250" font-family="Arial, sans-serif" font-size="22" font-weight="700" fill="#aaa">9</text>
  <circle cx="790" cy="248" r="18" fill="#1238ff"/>
  <text x="781" y="256" font-family="Arial, sans-serif" font-size="20" font-weight="700" fill="#fff">10</text>
  <text x="1078" y="250" font-family="Arial, sans-serif" font-size="22" font-weight="700" fill="#aaa">11</text>
  <text x="1250" y="250" font-family="Arial, sans-serif" font-size="22" font-weight="700" fill="#aaa">12</text>
  <text x="1320" y="250" font-family="Arial, sans-serif" font-size="22" font-weight="700" fill="#aaa">13</text>
  <g font-family="Arial, sans-serif" font-size="11" font-weight="700">
    <rect x="174" y="354" width="170" height="34" rx="7" fill="#fff7d7"/><text x="181" y="376" fill="#9b6a00">10:00 — Implante</text>
    <rect x="350" y="284" width="170" height="34" rx="7" fill="#dceeff"/><text x="357" y="306" fill="#0b44dd">9:00 — Valoracion</text>
    <rect x="350" y="424" width="170" height="34" rx="7" fill="#ffe2e2"/><text x="357" y="446" fill="#d22b2b">11:00 — Extraccion</text>
    <rect x="528" y="354" width="170" height="34" rx="7" fill="#ffe2e2"/><text x="535" y="376" fill="#d22b2b">10:00 — Urgencia</text>
    <rect x="706" y="284" width="170" height="44" rx="7" fill="#dceeff"/><text x="713" y="306" fill="#0b44dd">9:00 — Limpieza</text>
    <rect x="706" y="354" width="170" height="44" rx="7" fill="#c9f4ef"/><text x="713" y="376" fill="#047e75">10:30 — Blanqueamiento</text>
    <rect x="706" y="424" width="170" height="44" rx="7" fill="#dceeff"/><text x="713" y="446" fill="#0b44dd">11:00 — Ortodoncia</text>
    <rect x="884" y="284" width="170" height="34" rx="7" fill="#c9f4ef"/><text x="891" y="306" fill="#047e75">9:00 — Ortodoncia</text>
    <rect x="884" y="494" width="170" height="34" rx="7" fill="#ffe2e2"/><text x="891" y="516" fill="#d22b2b">12:30 — Urgencia</text>
    <rect x="1062" y="354" width="170" height="34" rx="7" fill="#dceeff"/><text x="1069" y="376" fill="#0b44dd">10:00 — Valoracion</text>
    <rect x="1240" y="354" width="170" height="34" rx="7" fill="#fff7d7"/><text x="1247" y="376" fill="#9b6a00">10:30 — Limpieza</text>
    <rect x="1240" y="424" width="170" height="34" rx="7" fill="#c9f4ef"/><text x="1247" y="446" fill="#047e75">11:00 — Valoracion</text>
  </g>
</svg>
